<svg width="32" height="32" viewBox="0 0 32 32" fill="currentColor" xmlns="http://www.w3.org/2000/svg">
<path fill-rule="evenodd" clip-rule="evenodd" d="M6.50047 9.52563C6.50047 4.26493 10.7518 0 15.9961 0C21.2404 0 25.4917 4.26493 25.4917 9.52563C25.4917 14.7863 21.2404 19.0513 15.9961 19.0513C10.7518 19.0513 6.50047 14.7863 6.50047 9.52563ZM15.9961 2.57468C12.1693 2.57468 9.06704 5.68686 9.06704 9.52563C9.06704 13.3644 12.1693 16.4766 15.9961 16.4766C19.8229 16.4766 22.9251 13.3644 22.9251 9.52563C22.9251 5.68686 19.8229 2.57468 15.9961 2.57468ZM7.15126 22.8392C9.73643 20.9971 12.8289 20.0073 16 20.0073C19.1711 20.0073 22.2636 20.9971 24.8487 22.8392M7.15126 22.8392C4.56599 24.6812 2.61604 27.2848 1.57191 30.2884C1.33854 30.9597 1.69187 31.6937 2.36108 31.9279C3.0303 32.162 3.76199 31.8075 3.99536 31.1362C4.86413 28.637 6.48649 26.4708 8.63741 24.9384C10.7884 23.4056 13.3616 22.582 16 22.582C18.6384 22.582 21.2115 23.4055 23.3625 24.9383C25.5134 26.4708 27.1359 28.637 28.0046 31.1362C28.238 31.8075 28.9697 32.162 29.6389 31.9279C30.3081 31.6937 30.6615 30.9597 30.4281 30.2884C29.3839 27.2848 27.434 24.6812 24.8487 22.8392"/>
</svg>
