<svg width="16" height="16" viewBox="0 0 16 16" class="sidebar-icon" fill="currentColor" xmlns="http://www.w3.org/2000/svg">
  <path fill-rule="evenodd" clip-rule="evenodd" d="M7.27173 1.68379C7.49633 1.56322 7.74609 1.5 8 1.5C8.25391 1.5 8.50367 1.56322 8.72827 1.68379L15.4819 5.31312C15.5103 5.32838 15.5371 5.34593 15.562 5.36549C15.6844 5.44757 15.7868 5.55698 15.8618 5.68515C15.9525 5.84018 16 6.01724 16 6.19708C16 6.37693 15.9525 6.55399 15.8618 6.70902C15.771 6.86414 15.6401 6.99177 15.4823 7.07674L13.7623 8.00049L15.482 8.9252C15.6399 9.01017 15.771 9.13792 15.8618 9.29304C15.9525 9.44807 16 9.62513 16 9.80498C16 9.98482 15.9525 10.1619 15.8618 10.3169C15.771 10.472 15.6401 10.5997 15.4823 10.6846L8.72861 14.316C8.50401 14.4366 8.25391 14.5 8 14.5C7.74609 14.5 7.49633 14.4368 7.27173 14.3162L0.517979 10.6848C0.360139 10.5998 0.229006 10.472 0.138237 10.3169C0.0475171 10.1619 0 9.98483 0 9.80498C0 9.62513 0.0475171 9.44807 0.138237 9.29304C0.229006 9.13793 0.359907 9.01029 0.517748 8.92532L2.24055 7.99896L0.517979 7.07274C0.360136 6.98777 0.229004 6.86001 0.138237 6.7049C0.0475171 6.54987 0 6.37281 0 6.19296C0 6.01311 0.0475175 5.83605 0.138237 5.68102C0.229005 5.52591 0.359906 5.39827 0.517748 5.3133L7.27173 1.68379ZM3.4375 8.64255L1.27568 9.80498L7.79157 13.3085C7.85655 13.3434 7.92798 13.3613 8 13.3613C8.07202 13.3613 8.14345 13.3434 8.20844 13.3085L14.7243 9.80498L12.5647 8.64372L8.72838 10.7041C8.50378 10.8247 8.25391 10.888 8 10.888C7.74609 10.888 7.49633 10.8248 7.27173 10.7042L3.4375 8.64255ZM12.3229 7.48668C12.3102 7.49291 12.2976 7.49964 12.2854 7.50686L8.20844 9.69651C8.14345 9.7314 8.07202 9.74929 8 9.74929C7.92798 9.74929 7.85655 9.7314 7.79157 9.69651L1.27575 6.19299L7.79157 2.69147C7.85655 2.65658 7.92798 2.63869 8 2.63869C8.07193 2.63869 8.14328 2.65654 8.20821 2.69134C8.20813 2.6913 8.20828 2.69139 8.20821 2.69134L14.728 6.19499L12.3229 7.48668Z" fill="currentColor"/>
</svg>
