<svg width="16" height="16" viewBox="0 0 16 16" fill="none" xmlns="http://www.w3.org/2000/svg">
<g clip-path="url(#clip0_8303_1971)">
<path d="M7.375 8.62499C7.27211 8.62551 7.17068 8.60061 7.07972 8.55252C6.98875 8.50442 6.91107 8.43461 6.85357 8.34928C6.79607 8.26396 6.76052 8.16575 6.75009 8.06339C6.73965 7.96103 6.75465 7.85767 6.79375 7.76249C9.6375 0.793743 9.6375 0.793743 9.74375 0.681243C9.84779 0.573278 9.98718 0.506313 10.1365 0.492564C10.2858 0.478815 10.4351 0.519198 10.5571 0.606347C10.6791 0.693496 10.7657 0.821602 10.8011 0.967296C10.8365 1.11299 10.8184 1.26656 10.75 1.39999C10.6187 1.69999 9.01875 5.63124 7.95625 8.23749C7.90896 8.35261 7.82837 8.451 7.72482 8.52003C7.62126 8.58907 7.49946 8.62562 7.375 8.62499Z" fill="#33353C"/>
<path d="M9.5625 8.62499C9.43962 8.6264 9.3194 8.58924 9.21875 8.51874C9.08174 8.4271 8.98648 8.28505 8.95371 8.12352C8.92093 7.96198 8.95329 7.79403 9.04375 7.65624L12.7937 2.03124C12.8349 1.95461 12.8915 1.8874 12.9601 1.8339C13.0286 1.78041 13.1076 1.74182 13.1919 1.72059C13.2763 1.69936 13.3641 1.69596 13.4498 1.71061C13.5355 1.72527 13.6173 1.75765 13.6898 1.80568C13.7622 1.85372 13.8239 1.91636 13.8708 1.98959C13.9177 2.06282 13.9488 2.14503 13.9621 2.23096C13.9755 2.3169 13.9707 2.40467 13.9482 2.48866C13.9256 2.57265 13.8858 2.65102 13.8312 2.71874L10.0813 8.34374C10.0246 8.42972 9.94765 8.50038 9.85716 8.54944C9.76666 8.59851 9.66544 8.62446 9.5625 8.62499Z" fill="#33353C"/>
<path d="M12.8188 6.55624C12.7367 6.53901 12.652 6.53811 12.5696 6.55359C12.4872 6.56908 12.4086 6.60064 12.3384 6.64649C12.2681 6.69234 12.2076 6.75157 12.1603 6.82081C12.113 6.89004 12.0797 6.96792 12.0625 7.04999C12.0453 7.13207 12.0444 7.21674 12.0598 7.29916C12.0753 7.38159 12.1069 7.46015 12.1528 7.53038C12.1986 7.6006 12.2578 7.66111 12.3271 7.70844C12.3963 7.75577 12.4742 7.78901 12.5562 7.80624C13.0061 7.89225 13.4459 8.02419 13.8687 8.19999C13.8969 8.212 13.921 8.23203 13.9379 8.25759C13.9548 8.28315 13.9638 8.31311 13.9638 8.34374C13.9638 8.37438 13.9548 8.40434 13.9379 8.4299C13.921 8.45546 13.8969 8.47549 13.8687 8.48749C13.0437 8.81874 11.0562 9.24999 8 9.24999C4.94375 9.24999 2.95 8.81249 2.125 8.45624C2.09681 8.44424 2.07278 8.42421 2.05589 8.39865C2.03899 8.37309 2.02999 8.34313 2.02999 8.31249C2.02999 8.28186 2.03899 8.2519 2.05589 8.22634C2.07278 8.20078 2.09681 8.18075 2.125 8.16874C3.33115 7.74066 4.59589 7.50036 5.875 7.45624C6.04076 7.44298 6.19446 7.36442 6.3023 7.23783C6.41013 7.11124 6.46326 6.947 6.45 6.78124C6.43674 6.61548 6.35817 6.46178 6.23159 6.35395C6.105 6.24611 5.94076 6.19298 5.775 6.20624C3.3625 6.38749 0.5 6.90624 0.5 8.31249C0.542647 10.2598 1.35648 12.1105 2.76273 13.4582C4.16899 14.8058 6.05266 15.5402 8 15.5C9.94734 15.5402 11.831 14.8058 13.2373 13.4582C14.6435 12.1105 15.4574 10.2598 15.5 8.31249C15.5 7.50624 14.65 6.94374 12.8188 6.55624Z" fill="#33353C"/>
</g>
<defs>
<clipPath id="clip0_8303_1971">
<rect width="16" height="16" fill="white"/>
</clipPath>
</defs>
</svg>
